<svg width="300" height="300" viewBox="0 0 300 300" fill="none" xmlns="http://www.w3.org/2000/svg">
<path d="M273.957 140.797L276.626 148.988H270.92L274.141 140.797H273.957ZM261.764 157.96H268.252L269.77 153.773H277.96L279.479 157.96H285.966L276.994 134.126H270.69L261.764 157.96ZM254.126 157.96H260.614V134.126H254.126V157.96ZM233.144 149.77C233.144 155.475 237.699 157.96 243.037 157.96C248.006 157.96 252.929 156.074 252.929 150.322C252.929 146.135 249.479 144.617 246.258 143.65C242.623 142.684 239.402 142.684 239.402 140.797C239.402 139.279 241.288 138.911 242.255 138.911C244.141 138.911 246.074 139.463 246.074 141.58H251.779C251.779 136.426 247.224 133.942 242.623 133.942C238.252 133.942 233.098 135.828 233.098 141.166C233.098 145.353 236.917 146.871 239.954 147.653C243.405 148.62 246.626 148.988 246.626 151.104C246.626 152.991 244.739 153.405 242.807 153.405C240.322 153.405 238.62 152.439 238.62 149.586H232.914L233.144 149.77ZM222.285 140.797L224.954 148.988H219.248L222.469 140.797H222.285ZM210.322 157.96H216.626L218.144 153.773H226.518L228.037 157.96H234.525L225.552 134.126H219.064L210.322 157.96ZM189.34 157.96H191.825V137.761L205.721 157.96H208.39V134.126H206.089V154.141L192.009 134.356H189.34V157.96ZM184.371 157.96H186.672V134.126H184.371V157.96ZM160.767 157.96H167.025V148.436H175.215V157.96H181.334V134.126H175.215V142.684H167.025V134.356H160.721V157.96H160.767ZM158.834 142.73C158.834 137.393 153.681 134.172 148.758 134.172C141.902 134.172 137.347 139.509 137.347 146.181C137.347 152.669 141.902 158.006 148.758 158.006C154.463 158.006 158.834 154.555 159.248 148.482H153.543C153.175 151.334 151.656 152.853 148.758 152.853C144.939 152.853 143.42 149.402 143.42 146.181C143.42 142.73 144.939 139.325 148.758 139.325C151.242 139.325 153.129 140.475 153.313 142.776H159.018H158.834V142.73ZM117.515 157.96H136.933V152.623H123.589V148.067H135.414V143.282H124.003V138.911H136.564V134.356H117.515V157.96ZM115.583 134.126H95.5675V139.463H102.607V157.96H108.911V139.463H115.951V134.126H115.583Z" fill="black"/>
<path d="M58.0215 143.098C58.5736 143.466 59.1718 143.098 58.9877 142.316L55.9509 136.979H54.8006L35.7515 170.706C34.9693 171.488 33.865 171.488 33.4509 170.706L26.9632 159.847L26.5951 158.328V148.804C26.5951 147.838 26.227 147.285 25.6288 146.917L10.3988 133.574C9.43253 133.022 9.84664 131.687 11.181 131.687H38.4203L45.092 135.506C45.4601 135.874 45.4601 136.289 45.092 136.473L42.4233 141.442C42.4233 141.81 42.0552 141.994 41.8712 141.81L36.5338 138.957L35.3834 138.589H28.2976C27.7454 138.589 27.5153 139.371 27.9295 139.739L32.7147 143.558C33.2669 144.111 33.4969 144.893 33.4969 145.445V158.006C33.4969 158.789 34.4632 158.973 34.8313 158.374L54.6626 124.095C55.0307 123.543 56.5491 123.543 56.5491 124.095L76.9325 159.341C77.8988 160.491 76.5644 161.641 75.4141 161.227L51.7638 147.331C51.3957 147.331 51.2117 146.779 51.3957 146.549L54.2485 141.764C54.2485 141.396 54.8006 141.396 55.2147 141.396L58.0675 143.282V143.098H58.0215Z" fill="#E10000"/>
</svg>
